<?xml version="1.0" encoding="iso-8859-1"?>
<!-- Generator: Adobe Illustrator 19.0.0, SVG Export Plug-In . SVG Version: 6.00 Build 0)  -->
<svg version="1.1" id="Layer_1" xmlns="http://www.w3.org/2000/svg" xmlns:xlink="http://www.w3.org/1999/xlink" x="0px" y="0px"
	 viewBox="0 0 512 512" style="enable-background:new 0 0 512 512;" xml:space="preserve">
<g>
	<rect x="222.607" y="476.384" style="fill:#333333;" width="27.752" height="24.329"/>
	<rect x="222.607" y="441.253" style="fill:#333333;" width="27.752" height="23.845"/>
	<path style="fill:#333333;" d="M172.961,402.841v26.301h13.474v-8.036C186.435,412.528,180.755,405.252,172.961,402.841z"/>
	<path style="fill:#333333;" d="M222.605,394.836h27.752v-23.849h-27.733C222.618,371.239,222.605,394.836,222.605,394.836z"/>
	<rect x="261.641" y="476.384" style="fill:#333333;" width="27.752" height="24.329"/>
	<path style="fill:#333333;" d="M224.859,359.703h25.498v-20.869C238.672,340.831,229.044,348.918,224.859,359.703z"/>
	<rect x="172.964" y="440.43" style="fill:#333333;" width="13.474" height="24.675"/>
	<path style="fill:#333333;" d="M355.381,125.002c-12.512,46.629-28.366,77.547-36.633,91.724h73.264
		C383.745,202.549,367.892,171.63,355.381,125.002z"/>
	<rect x="172.964" y="476.384" style="fill:#333333;" width="13.474" height="24.329"/>
	<path style="fill:#333333;" d="M156.62,125.002c-12.511,46.628-28.365,77.547-36.633,91.724h73.265
		C184.984,202.549,169.132,171.63,156.62,125.002z"/>
	<rect x="261.641" y="441.253" style="fill:#333333;" width="27.752" height="23.845"/>
	<path style="fill:#333333;" d="M256.001,50.112c-12.511,46.628-28.366,77.548-36.634,91.725h73.267
		C284.365,127.661,268.512,96.74,256.001,50.112z"/>
	<rect x="148.205" y="476.384" style="fill:#333333;" width="13.474" height="24.329"/>
	<path style="fill:#333333;" d="M148.202,421.104v8.036h13.474v-26.301C153.88,405.252,148.202,412.528,148.202,421.104z"/>
	<rect x="148.205" y="440.43" style="fill:#333333;" width="13.474" height="24.675"/>
	<rect x="222.607" y="406.123" style="fill:#333333;" width="27.752" height="23.845"/>
</g>
<path style="fill:#FFAA2A;" d="M156.62,249.456c-3.855,0-6.991,3.136-6.991,6.991c0,3.855,3.136,6.991,6.991,6.991
	c3.855,0,6.991-3.136,6.991-6.991C163.611,252.592,160.475,249.456,156.62,249.456z"/>
<g>
	<path style="fill:#333333;" d="M350.324,402.841v26.301h13.474v-8.036C363.797,412.528,358.119,405.252,350.324,402.841z"/>
	<rect x="350.33" y="440.43" style="fill:#333333;" width="13.474" height="24.675"/>
</g>
<g>
	<path style="fill:#FFAA2A;" d="M256,174.567c-3.855,0-6.991,3.135-6.991,6.989c0,3.855,3.136,6.991,6.991,6.991
		c3.855,0,6.99-3.136,6.99-6.991C262.99,177.703,259.854,174.567,256,174.567z"/>
	<path style="fill:#FFAA2A;" d="M355.381,249.456c-3.855,0-6.991,3.136-6.991,6.991c0,3.855,3.136,6.991,6.991,6.991
		c3.854,0,6.99-3.136,6.99-6.991S359.236,249.456,355.381,249.456z"/>
</g>
<path style="fill:#808080;" d="M380.144,307.017c-1.688-0.974-2.837-2.778-2.837-4.867v-74.137h-43.854v74.137h-0.007
	c0,1.419-0.525,2.839-1.592,3.935c-1.106,1.136-2.574,1.707-4.043,1.707c-1.418,0-2.838-0.532-3.935-1.599l-44.24-43.057
	l0.005-0.005c-1.053-1.025-1.712-2.453-1.712-4.039V153.125h-43.856v105.968c0,1.586-0.659,3.014-1.712,4.039l0.005,0.005
	l-44.239,43.057c-1.097,1.068-2.517,1.599-3.935,1.599c-1.47,0-2.939-0.571-4.043-1.707c-1.068-1.097-1.592-2.517-1.592-3.935
	h-0.007v-74.137h-43.855v74.137c0,2.09-1.149,3.893-2.837,4.867l0.011,0.021l-32.573,18.77l13.165,174.908h24.457v-79.611
	c0-16.763,13.638-30.401,30.402-30.401s30.402,13.638,30.402,30.401v79.611h13.601V371.741c0.251-3.523,0.661-7.817,1.068-9.677
	c4.435-19.998,22.299-35.003,43.612-35.003s39.177,15.004,43.612,35.003c0.51,2.104,1.068,5.771,1.068,9.677v128.974h13.601v-79.611
	c0-16.763,13.638-30.401,30.402-30.401c16.764,0,30.402,13.638,30.402,30.401v79.611h24.457l13.165-174.908l-32.573-18.77
	L380.144,307.017z M156.62,274.723c-10.077,0-18.276-8.2-18.276-18.276c0-10.077,8.199-18.276,18.276-18.276
	c10.077,0,18.276,8.2,18.276,18.276C174.896,266.525,166.698,274.723,156.62,274.723z M256,199.833
	c-10.077,0-18.276-8.2-18.276-18.276c0-10.076,8.199-18.274,18.276-18.274c10.077,0,18.275,8.199,18.275,18.274
	C274.275,191.635,266.076,199.833,256,199.833z M355.381,274.723c-10.077,0-18.276-8.2-18.276-18.276
	c0-10.077,8.199-18.276,18.276-18.276s18.275,8.2,18.275,18.276C373.656,266.525,365.459,274.723,355.381,274.723z"/>
<g>
	<rect x="261.641" y="406.123" style="fill:#333333;" width="27.752" height="23.845"/>
	<path style="fill:#333333;" d="M261.643,338.833v20.869h25.498C282.955,348.918,273.328,340.831,261.643,338.833z"/>
	<path style="fill:#333333;" d="M261.643,370.988v23.849h27.752c0,0-0.014-23.597-0.019-23.849H261.643z"/>
	<rect x="325.571" y="476.384" style="fill:#333333;" width="13.474" height="24.329"/>
	<rect x="325.571" y="440.43" style="fill:#333333;" width="13.474" height="24.675"/>
	<path style="fill:#333333;" d="M325.565,421.104v8.036h13.474v-26.301C331.244,405.252,325.565,412.528,325.565,421.104z"/>
	<rect x="350.33" y="476.384" style="fill:#333333;" width="13.474" height="24.329"/>
</g>
<path d="M156.62,238.171c-10.077,0-18.276,8.2-18.276,18.276c0,10.077,8.199,18.276,18.276,18.276
	c10.077,0,18.276-8.2,18.276-18.276C174.896,246.37,166.698,238.171,156.62,238.171z M156.62,263.438
	c-3.855,0-6.991-3.136-6.991-6.991s3.136-6.991,6.991-6.991c3.855,0,6.991,3.136,6.991,6.991
	C163.611,260.302,160.475,263.438,156.62,263.438z"/>
<path d="M355.381,238.171c-10.077,0-18.276,8.2-18.276,18.276c0,10.077,8.199,18.276,18.276,18.276s18.275-8.2,18.275-18.276
	C373.656,246.37,365.459,238.171,355.381,238.171z M355.381,263.438c-3.855,0-6.991-3.136-6.991-6.991s3.136-6.991,6.991-6.991
	c3.854,0,6.99,3.136,6.99,6.991S359.236,263.438,355.381,263.438z"/>
<path d="M256,163.282c-10.077,0-18.276,8.199-18.276,18.274c0,10.077,8.199,18.276,18.276,18.276c10.077,0,18.275-8.2,18.275-18.276
	C274.275,171.481,266.076,163.282,256,163.282z M256,188.548c-3.855,0-6.991-3.136-6.991-6.991c0-3.854,3.136-6.989,6.991-6.989
	c3.855,0,6.99,3.135,6.99,6.989C262.99,185.412,259.854,188.548,256,188.548z"/>
<path d="M421.416,317.802l-32.823-18.915V228.01h13.594c0.001,0,0.003,0,0.005,0c1.117,0,2.247-0.331,3.232-1.02
	c2.553-1.788,3.172-5.306,1.386-7.859c-0.289-0.412-28.975-41.986-45.785-118.62V80.531c0-3.117-2.527-5.642-5.642-5.642
	s-5.642,2.526-5.642,5.642v19.962c-16.763,76.431-45.499,118.23-45.785,118.64c-1.206,1.723-1.354,3.975-0.383,5.842
	c0.972,1.867,2.9,3.037,5.005,3.037h13.594v60.771l-32.955-32.074V153.122h13.594v-0.001c0,0,0.001,0,0.002,0
	c1.116,0,2.245-0.331,3.229-1.018c2.553-1.784,3.176-5.302,1.394-7.855c-0.289-0.414-29.025-42.201-45.789-118.624V5.642
	c0-3.117-2.527-5.642-5.642-5.642c-3.116,0-5.643,2.526-5.643,5.642v19.961c-16.763,76.429-45.499,118.23-45.785,118.64
	c-1.206,1.723-1.354,3.975-0.383,5.842c0.972,1.867,2.9,3.037,5.005,3.037h13.593v103.587l-32.957,32.073V228.01h13.594v-0.001
	c0.001,0,0.002,0,0.002,0c1.117,0,2.246-0.331,3.23-1.018c2.553-1.785,3.176-5.302,1.393-7.857
	c-0.289-0.413-29.025-42.199-45.789-118.623V80.531c0-3.117-2.527-5.642-5.642-5.642s-5.642,2.526-5.642,5.642v19.962
	c-16.764,76.431-45.499,118.23-45.785,118.64c-1.206,1.723-1.354,3.975-0.383,5.842c0.972,1.867,2.9,3.037,5.005,3.037h13.593
	v70.876l-32.822,18.914c-1.88,1.083-2.972,3.148-2.809,5.312l13.824,183.667c0.221,2.943,2.675,5.219,5.627,5.219h297.548
	c2.952,0,5.405-2.276,5.627-5.219l13.824-183.667C424.388,320.95,423.295,318.885,421.416,317.802z M318.748,216.727
	c8.268-14.177,24.123-45.095,36.633-91.724c12.511,46.627,28.364,77.548,36.631,91.724H318.748z M219.367,141.838
	c8.268-14.177,24.123-45.097,36.634-91.725c12.512,46.627,28.364,77.549,36.632,91.725H219.367z M119.987,216.727
	c8.269-14.177,24.124-45.096,36.633-91.724c12.512,46.627,28.364,77.548,36.631,91.724H119.987z M161.676,500.715h-13.474v-24.33
	h13.474V500.715z M161.676,465.101h-13.474v-24.675h13.474V465.101z M161.676,429.14h-13.474v-8.036
	c0-8.578,5.679-15.852,13.474-18.265V429.14z M186.435,500.715h-13.474v-24.33h13.474V500.715z M186.435,465.101h-13.474v-24.675
	h13.474V465.101z M186.435,429.14h-13.474v-26.301c7.796,2.413,13.474,9.687,13.474,18.265V429.14z M250.358,500.715h-27.752v-24.33
	h27.752V500.715z M250.358,465.101h-27.752v-23.846h27.752V465.101z M250.358,429.97h-27.752v-23.849h27.752V429.97z
	 M250.358,394.836h-27.752c0,0,0.014-23.597,0.019-23.849h27.733V394.836z M250.358,359.703h-25.498
	c4.184-10.786,13.813-18.872,25.498-20.869V359.703z M289.395,500.715h-27.752v-24.33h27.752V500.715z M289.395,465.101h-27.752
	v-23.846h27.752V465.101z M289.395,429.97h-27.752v-23.849h27.752V429.97z M261.643,394.836v-23.849h27.733
	c0.006,0.252,0.019,23.849,0.019,23.849H261.643z M261.643,359.703v-20.869c11.686,1.999,21.314,10.084,25.498,20.869H261.643z
	 M339.039,500.715h-13.474v-24.33h13.474V500.715z M339.039,465.101h-13.474v-24.675h13.474V465.101z M339.039,429.14h-13.474
	v-8.036c0-8.578,5.679-15.852,13.474-18.265V429.14z M363.797,500.715h-13.474v-24.33h13.474V500.715z M363.797,465.101h-13.474
	v-24.675h13.474V465.101z M363.797,429.14h-13.474v-26.301c7.796,2.413,13.474,9.687,13.474,18.265V429.14z M399.54,500.715h-24.457
	v-79.611c0-16.763-13.638-30.401-30.402-30.401s-30.402,13.638-30.402,30.401v79.611H300.68V371.741
	c0-3.906-0.557-7.573-1.068-9.677c-4.435-19.998-22.299-35.003-43.612-35.003s-39.177,15.004-43.612,35.003
	c-0.406,1.86-0.817,6.154-1.068,9.677v128.974H197.72v-79.611c0-16.763-13.638-30.401-30.402-30.401
	c-16.763,0-30.402,13.638-30.402,30.401v79.611h-24.458L99.294,325.807l32.573-18.77l-0.011-0.021
	c1.688-0.974,2.837-2.778,2.837-4.867v-74.137h43.855v74.137h0.007c0,1.419,0.525,2.839,1.592,3.935
	c1.106,1.136,2.574,1.707,4.043,1.707c1.419,0,2.838-0.532,3.935-1.599l44.239-43.057l-0.005-0.004
	c1.053-1.025,1.712-2.453,1.712-4.039V153.123h43.856v105.968c0,1.586,0.659,3.014,1.712,4.039l-0.005,0.005l44.24,43.057
	c1.097,1.068,2.517,1.599,3.935,1.599c1.469,0,2.937-0.571,4.043-1.707c1.068-1.097,1.592-2.517,1.592-3.935h0.007v-74.137h43.854
	v74.137c0,2.09,1.149,3.893,2.837,4.867l-0.011,0.021l32.573,18.77L399.54,500.715z"/>
<g>
</g>
<g>
</g>
<g>
</g>
<g>
</g>
<g>
</g>
<g>
</g>
<g>
</g>
<g>
</g>
<g>
</g>
<g>
</g>
<g>
</g>
<g>
</g>
<g>
</g>
<g>
</g>
<g>
</g>
</svg>
